<svg xmlns="http://www.w3.org/2000/svg" width="900" height="420" viewBox="0 0 900 420" role="img" aria-labelledby="title desc" preserveAspectRatio="xMidYMid meet">
  <title id="title">Edward engineering landscape</title>
  <desc id="desc">Pseudo-3D engineering landscape linking selected systems and GitHub Brain as a future system core.</desc>
  <style>
    .m{font-family:ui-monospace,SFMono-Regular,Menlo,Consolas,monospace}.pulse{animation:pulse 3.4s ease-in-out infinite}.dash{stroke-dasharray:5 9;animation:dash 6s linear infinite}
    @keyframes pulse{0%,100%{opacity:.35}50%{opacity:1}}@keyframes dash{to{stroke-dashoffset:-56}}
    @media(prefers-reduced-motion:reduce){.pulse,.dash{animation:none}}
  </style>
  <rect width="900" height="420" rx="8" fill="#0a0d0e"/>
  <path d="M28 48H872M28 376H872" stroke="#30383b"/>
  <text x="28" y="30" class="m" fill="#778286" font-size="11" letter-spacing="1.6">ENGINEERING LANDSCAPE / PSEUDO-3D TEASER</text>
  <text x="872" y="30" text-anchor="end" class="m" fill="#78d0c8" font-size="9">README SNAPSHOT → THREE.JS WORLD</text>

  <g transform="translate(70 68)">
    <path d="M380 0 700 154 380 308 60 154z" fill="#0e1315" stroke="#2f383b"/>
    <path d="M60 154 380 308M700 154 380 308M380 0 380 308" stroke="#20282b"/>
    <path d="M148 126 380 238 612 126M185 181 380 276 575 181" stroke="#273034" fill="none"/>

    <g transform="translate(125 118)">
      <path d="M0 0 66-31 132 0 66 31z" fill="#11181a" stroke="#3d494d"/>
      <path d="M14-2 66-25 118-2 66 23z" fill="#151d20" stroke="#78d0c8"/>
      <path d="M66-25v48M14-2v20l52 25 52-25V-2" fill="none" stroke="#3f4a4e"/>
      <text x="66" y="50" text-anchor="middle" class="m" fill="#78d0c8" font-size="8.5">AIML—01</text>
      <text x="66" y="66" text-anchor="middle" class="m" fill="#e2e4df" font-size="9.5">AFL PREDICT</text>
      <text x="66" y="81" text-anchor="middle" class="m" fill="#657174" font-size="8">ML / EVALUATION</text>
    </g>

    <g transform="translate(502 116)">
      <path d="M0 0 66-31 132 0 66 31z" fill="#11181a" stroke="#3d494d"/>
      <path d="M14-2 66-25 118-2 66 23z" fill="#151d20" stroke="#78d0c8"/>
      <path d="M66-25v48M14-2v20l52 25 52-25V-2" fill="none" stroke="#3f4a4e"/>
      <text x="66" y="50" text-anchor="middle" class="m" fill="#78d0c8" font-size="8.5">APP—01</text>
      <text x="66" y="66" text-anchor="middle" class="m" fill="#e2e4df" font-size="9.5">WARDROBE</text>
      <text x="66" y="81" text-anchor="middle" class="m" fill="#657174" font-size="8">PRODUCT / LOCAL-FIRST</text>
    </g>

    <g transform="translate(314 222)">
      <path d="M0 0 66-31 132 0 66 31z" fill="#11181a" stroke="#3d494d"/>
      <path d="M14-2 66-25 118-2 66 23z" fill="#151d20" stroke="#78d0c8"/>
      <path d="M66-25v48M14-2v20l52 25 52-25V-2" fill="none" stroke="#3f4a4e"/>
      <text x="66" y="50" text-anchor="middle" class="m" fill="#78d0c8" font-size="8.5">FS—01</text>
      <text x="66" y="66" text-anchor="middle" class="m" fill="#e2e4df" font-size="9.5">PROTIN</text>
      <text x="66" y="81" text-anchor="middle" class="m" fill="#657174" font-size="8">BACKEND / MOBILE</text>
    </g>

    <g transform="translate(337 56)">
      <path d="M43 0 86 22 86 70 43 92 0 70 0 22z" fill="#101719" stroke="#78d0c8"/>
      <path d="M43 0v92M0 22l86 48M86 22 0 70" stroke="#3f4a4e" fill="none"/>
      <circle cx="43" cy="46" r="6" fill="#78d0c8" class="pulse"/>
      <text x="43" y="111" text-anchor="middle" class="m" fill="#78d0c8" font-size="8.5">AI—01 / GITHUB BRAIN</text>
      <text x="43" y="126" text-anchor="middle" class="m" fill="#657174" font-size="8">FUTURE SYSTEM CORE</text>
    </g>

    <g fill="none" stroke="#78d0c8" class="dash">
      <path d="M380 162C320 154 270 149 191 145"/>
      <path d="M380 162C445 154 500 149 568 143"/>
      <path d="M380 162C380 195 380 221 380 247"/>
    </g>
  </g>

  <text x="28" y="400" class="m" fill="#657174" font-size="8.3">GITHUB = RESPONSIVE SVG SNAPSHOT · DEVELOPER HUB = FUTURE INTERACTIVE THREE.JS EXPERIENCE.</text>
</svg>
