<svg xmlns="http://www.w3.org/2000/svg" width="1200" height="350" viewBox="0 0 1200 350" role="img" aria-labelledby="title desc">
  <title id="title">Edward Hwang weekly engineering focus</title>
  <desc id="desc">Current week public engineering focus derived from public repository activity.</desc>
  <style>.m{font-family:ui-monospace,SFMono-Regular,Menlo,Consolas,monospace}</style>
  <rect width="1200" height="350" rx="10" fill="#0a0d0e"/>
  <path d="M38 54H1162M38 304H1162" stroke="#30383b"/>
  <line x1="468" y1="84" x2="468" y2="270" stroke="#30383b"/>
  <line x1="862" y1="84" x2="862" y2="270" stroke="#30383b"/>
  <text x="38" y="34" class="m" fill="#778286" font-size="12" letter-spacing="2">WEEK / 34 · ENGINEERING FOCUS</text>
  <text x="1162" y="34" text-anchor="end" class="m" fill="#78d0c8" font-size="10">PUBLIC SIGNAL / PUBLIC GITHUB</text>
  <text x="58" y="92" class="m" fill="#657174" font-size="9" letter-spacing="1.4">30-DAY CONTEXT</text>
  <text x="58" y="150" class="m" fill="#dfe2de" font-size="11">TEST / QUALITY</text><text x="420" y="150" text-anchor="end" class="m" fill="#657174" font-size="10">1</text><line x1="58" y1="168" x2="420" y2="168" stroke="#20282b" stroke-width="4"/><line x1="58" y1="168" x2="348.0" y2="168" stroke="#78d0c8" stroke-width="4"/><text x="58" y="208" class="m" fill="#dfe2de" font-size="11">ENGINEERING</text><text x="420" y="208" text-anchor="end" class="m" fill="#657174" font-size="10">1</text><line x1="58" y1="226" x2="420" y2="226" stroke="#20282b" stroke-width="4"/><line x1="58" y1="226" x2="348.0" y2="226" stroke="#78d0c8" stroke-width="4"/>
  <text x="528" y="92" class="m" fill="#657174" font-size="9" letter-spacing="1.4">RECENT REPOSITORIES</text>
  <text x="528" y="149" class="m" fill="#f1efe8" font-size="11">Protin</text><text x="828" y="149" text-anchor="end" class="m" fill="#657174" font-size="10">1 change</text><line x1="528" y1="164" x2="828" y2="164" stroke="#20282b"/><text x="528" y="191" class="m" fill="#f1efe8" font-size="11">wadrobe</text><text x="828" y="191" text-anchor="end" class="m" fill="#657174" font-size="10">1 change</text>
  <text x="900" y="92" class="m" fill="#657174" font-size="9" letter-spacing="1.4">LATEST SIGNAL</text>
  
    <text x="900" y="145" class="m" fill="#78d0c8" font-size="10">14 AUG / Protin</text>
    <text x="900" y="177" class="m" fill="#f1efe8" font-size="12">chore: remove resume PDFs, add</text>
    <text x="900" y="197" class="m" fill="#f1efe8" font-size="12">LICENSE, fix CI workflow and ruff se…</text>
    <text x="900" y="232" class="m" fill="#657174" font-size="9">TEST / QUALITY</text>

  <text x="58" y="285" class="m" fill="#8e999c" font-size="10">NO PUBLIC REPOSITORY CHANGES RECORDED SINCE MONDAY · CONTEXT BELOW USES THE LAST 30 DAYS.</text>
  <text x="58" y="330" class="m" fill="#78d0c8" font-size="11">00</text>
  <text x="88" y="330" class="m" fill="#657174" font-size="9">PUBLIC CHANGES THIS WEEK</text>
  <text x="330" y="330" class="m" fill="#78d0c8" font-size="11">00</text>
  <text x="360" y="330" class="m" fill="#657174" font-size="9">ACTIVE REPOS THIS WEEK</text>
  <text x="548" y="330" class="m" fill="#78d0c8" font-size="10">NO PUBLIC CHANGE THIS WEEK</text>
  <text x="1162" y="330" text-anchor="end" class="m" fill="#657174" font-size="9">UPDATED 2026-08-21 23:13 AEST</text>
</svg>
